<svg version="1.0" xmlns="http://www.w3.org/2000/svg" width="600.000000pt" height="600.000000pt" viewBox="0 0 600.000000 600.000000" preserveAspectRatio="xMidYMid meet" style="width: 298.506px; height: auto;"> <g transform="translate(0.000000,600.000000) scale(0.100000,-0.100000)" fill="#000000" stroke="none"> <path d="M3000 5013 c-25 -70 -25 -70 -43 -25 -26 66 -47 56 -47 -23 0 -77 20 -89 21 -12 l1 52 15 -37 c20 -49 37 -48 54 5 l14 42 3 -57 c2 -32 7 -58 13 -58 6 0 9 27 7 67 -3 73 -21 94 -38 46z"></path> <path d="M3240 5021 c0 -5 -3 -18 -6 -28 -5 -16 -4 -16 10 1 18 23 20 36 6 36 -5 0 -10 -4 -10 -9z"></path> <path d="M2633 5000 c-29 -12 -36 -40 -21 -86 10 -31 19 -40 40 -42 45 -5 68 14 68 56 0 66 -33 94 -87 72z m66 -43 c14 -41 7 -63 -21 -71 -27 -7 -37 0 -49 32 -16 42 -4 72 30 72 24 0 31 -6 40 -33z"></path> <path d="M3447 4973 c-15 -15 -5 -49 20 -68 35 -28 23 -49 -23 -42 -43 7 -35 -9 8 -18 24 -6 35 -3 45 11 18 25 17 29 -19 63 -28 26 -30 31 -15 37 10 3 26 4 37 1 11 -3 20 -2 20 3 0 16 -59 27 -73 13z"></path> <path d="M2325 4916 c-35 -25 0 -126 44 -126 9 0 27 7 40 16 20 14 22 23 18 56 -3 21 -11 45 -17 53 -16 19 -60 19 -85 1z m70 -20 c24 -36 16 -80 -14 -84 -31 -5 -51 21 -51 64 0 48 39 60 65 20z"></path> <path d="M3882 4768 c-34 -59 -37 -68 -24 -68 5 0 14 11 20 25 11 25 13 25 42 10 30 -15 30 -16 14 -46 -26 -52 4 -28 36 27 30 53 31 79 1 43 -14 -18 -20 -19 -43 -8 -23 10 -25 15 -17 31 6 10 9 24 6 31 -2 6 -18 -14 -35 -45z"></path> <path d="M2070 4805 c0 -6 50 -107 55 -113 2 -2 17 4 35 13 18 9 30 19 27 22 -3 2 -15 0 -26 -7 -28 -15 -35 -9 -55 45 -10 25 -22 45 -27 45 -5 0 -9 -2 -9 -5z"></path> <path d="M2805 4723 c-376 -49 -710 -206 -973 -458 -202 -193 -321 -362 -422 -601 -54 -125 -97 -281 -83 -295 9 -9 15 0 23 32 158 620 625 1097 1229 1255 625 163 1290 -50 1716 -551 174 -204 297 -439 351 -667 17 -77 34 -102 34 -52 0 42 -50 203 -94 305 -239 543 -750 936 -1333 1024 -94 14 -365 19 -448 8z"></path> <path d="M1841 4673 l-22 -18 37 -52 c20 -29 40 -53 44 -53 4 0 19 11 34 25 22 21 25 28 16 45 -6 11 -17 20 -25 20 -7 0 -15 10 -17 23 -4 28 -38 34 -67 10z m59 -17 c0 -7 -7 -19 -15 -26 -13 -11 -18 -10 -29 6 -11 14 -11 21 -3 26 20 13 47 9 47 -6z m33 -40 c3 -8 -2 -21 -12 -30 -16 -15 -19 -15 -31 -1 -10 12 -10 18 0 30 16 19 36 19 43 1z"></path> <path d="M4139 4621 c-33 -34 -37 -70 -11 -94 29 -27 68 -21 91 12 27 38 27 76 -1 95 -32 22 -45 20 -79 -13z m75 -7 c22 -21 20 -29 -12 -65 -25 -28 -31 -30 -50 -20 -28 15 -28 48 0 78 25 27 41 29 62 7z"></path> <path d="M4366 4420 c-20 -22 -36 -45 -36 -50 0 -14 46 -60 60 -60 17 0 96 78 87 86 -4 4 -25 -9 -46 -30 -26 -25 -45 -37 -56 -33 -31 13 -29 38 9 76 20 20 36 40 36 44 0 17 -20 4 -54 -33z"></path> <path d="M1482 4357 l-22 -23 43 -42 c24 -23 47 -42 53 -42 12 0 54 42 54 55 0 5 -11 -2 -25 -15 -24 -22 -27 -23 -42 -7 -16 15 -15 18 2 37 10 11 13 20 8 20 -6 0 -16 -7 -23 -15 -7 -8 -17 -15 -22 -15 -18 0 -20 31 -3 50 25 28 3 25 -23 -3z"></path> <path d="M4581 4216 c-8 -9 -10 -28 -6 -49 9 -48 -11 -59 -42 -21 -17 21 -23 24 -23 12 0 -9 12 -26 26 -37 21 -16 30 -18 46 -10 17 9 19 17 13 55 -5 35 -3 44 9 44 8 0 22 -10 30 -22 12 -16 16 -18 16 -7 0 17 -30 49 -47 49 -6 0 -16 -6 -22 -14z"></path> <path d="M1330 4161 c0 -6 9 -15 20 -21 20 -11 20 -12 3 -40 -16 -28 -18 -29 -40 -15 -25 17 -33 19 -33 7 0 -11 94 -72 111 -72 8 0 1 10 -15 23 -26 21 -27 25 -15 45 16 26 27 27 57 6 12 -8 22 -11 22 -5 0 6 -19 23 -42 39 -62 41 -68 44 -68 33z"></path> <path d="M2946 4000 c-47 -14 -85 -59 -103 -120 -18 -61 -15 -187 12 -518 8 -97 19 -242 25 -322 23 -321 46 -395 143 -451 35 -20 55 -24 127 -24 74 0 93 4 150 31 71 34 175 121 130 109 -50 -14 -169 -17 -204 -5 -52 17 -92 68 -106 137 -14 67 -12 133 26 629 22 285 24 350 14 398 -23 110 -111 166 -214 136z"></path> <path d="M4725 3984 c-75 -40 -76 -41 -57 -74 19 -33 39 -42 22 -9 -24 44 14 67 44 27 16 -22 16 -14 0 26 -10 25 27 28 47 4 21 -26 24 -20 7 17 -13 29 -22 30 -63 9z"></path> <path d="M1167 3885 c-20 -43 -22 -67 -3 -42 13 16 16 16 60 -4 26 -11 52 -19 59 -16 6 2 -15 15 -46 30 -53 24 -57 28 -47 47 6 11 7 20 2 20 -4 0 -16 -16 -25 -35z"></path> <path d="M2252 3459 c-56 -28 -91 -73 -195 -250 -92 -156 -111 -179 -129 -161 -9 9 -15 5 -24 -16 l-12 -27 -1 27 c-2 63 -30 81 -32 21 -1 -38 -1 -38 -9 -8 -4 17 -8 49 -9 73 -2 61 -21 52 -22 -10 -1 -69 -17 -35 -18 37 -2 73 -18 91 -26 29 -10 -76 -12 -75 -20 14 -8 94 -25 110 -25 25 0 -70 -19 -54 -21 17 -1 95 -25 102 -31 10 l-3 -45 -8 50 c-12 73 -17 84 -27 60 -5 -11 -10 -38 -11 -60 -1 -26 -3 -31 -6 -15 -11 78 -15 90 -22 85 -5 -2 -12 -26 -17 -52 l-8 -48 -5 38 c-8 52 -25 51 -29 0 -4 -49 -22 -59 -22 -13 0 47 -18 35 -26 -17 -7 -44 -8 -45 -13 -19 -8 41 -25 35 -32 -11 l-6 -38 -8 32 c-8 36 -25 35 -25 -2 0 -31 -16 -41 -23 -14 -8 30 -27 14 -28 -24 l-1 -32 -10 28 c-12 33 -28 26 -28 -11 l0 -27 -19 24 -18 24 -7 -29 c-7 -25 -9 -27 -17 -11 -13 22 -29 13 -29 -16 l-1 -22 -12 23 c-14 25 -27 20 -27 -12 -1 -20 -2 -20 -14 -3 -16 21 -26 22 -26 2 0 -18 -16 -20 -26 -3 -5 8 -11 6 -20 -6 -8 -11 -14 -13 -19 -7 -9 16 -25 13 -25 -4 0 -20 -10 -19 -26 3 -13 16 -13 16 -14 0 0 -21 -11 -23 -28 -6 -9 9 -13 7 -18 -6 -5 -13 -9 -14 -21 -4 -11 9 -16 9 -23 -2 -7 -11 -12 -11 -23 -2 -12 10 -16 9 -21 -4 -5 -13 -9 -14 -20 -5 -9 8 -16 8 -20 2 -3 -5 -23 -8 -44 -6 -20 1 -42 -1 -49 -7 -7 -6 -14 -5 -18 2 -3 6 -12 7 -18 3 -6 -4 -39 -8 -72 -9 -123 -3 -411 -16 -445 -20 -19 -3 -73 -8 -120 -13 -47 -4 -71 -9 -54 -10 17 0 75 -7 130 -15 54 -8 173 -17 264 -21 91 -4 192 -9 225 -11 33 -3 92 -6 130 -9 39 -2 70 -4 70 -5 0 -1 19 -3 42 -4 23 0 44 -4 47 -7 3 -3 24 -4 46 -3 22 1 40 -2 40 -8 0 -5 9 -7 19 -3 11 3 22 1 26 -5 5 -8 10 -8 20 0 10 8 15 8 20 0 4 -6 15 -8 26 -5 11 4 19 2 19 -5 0 -7 8 -9 20 -5 12 4 20 2 20 -5 0 -7 8 -9 19 -5 12 4 21 0 25 -11 5 -13 9 -14 21 -4 12 10 16 9 21 -4 5 -13 9 -14 20 -5 11 9 15 7 20 -5 4 -11 13 -15 25 -11 13 5 19 1 19 -10 0 -12 6 -15 20 -10 14 5 20 2 20 -10 0 -11 6 -15 19 -10 13 4 20 0 24 -16 5 -19 8 -20 21 -9 14 10 16 9 16 -8 0 -12 5 -24 10 -27 6 -3 10 -1 10 4 0 6 5 11 10 11 6 0 10 -9 10 -19 0 -27 17 -35 28 -15 7 13 10 10 16 -17 7 -32 8 -33 21 -15 14 19 15 19 15 -6 0 -30 18 -47 30 -28 6 9 9 6 12 -10 4 -28 28 -39 29 -13 0 14 3 12 12 -7 16 -35 17 -36 27 -20 8 13 12 12 24 -5 14 -17 17 -18 26 -5 8 13 11 13 19 1 5 -8 14 -10 22 -5 8 4 25 7 39 6 16 -2 41 8 65 26 41 29 79 92 195 320 55 109 120 186 162 194 41 8 90 -14 115 -51 28 -41 44 -95 78 -256 39 -185 77 -242 167 -252 69 -8 133 24 158 79 25 55 25 104 -1 181 -28 85 -256 538 -293 583 -58 71 -154 92 -234 53z"></path> <path d="M3389 3450 c-79 -24 -115 -85 -106 -181 7 -76 32 -128 178 -369 154 -252 171 -287 163 -325 -9 -44 -39 -100 -99 -185 -84 -119 -105 -165 -105 -227 0 -60 15 -95 55 -133 23 -22 36 -25 94 -25 59 0 72 4 104 28 52 40 101 147 192 427 110 337 179 522 183 488 5 -41 22 -34 23 10 1 20 5 48 9 62 l8 25 1 -26 c2 -48 16 -41 27 13 l11 53 8 -53 c9 -61 24 -53 26 13 1 68 17 9 18 -67 1 -38 5 -68 11 -68 5 0 10 30 12 68 4 92 15 60 25 -73 l7 -110 6 92 c5 94 19 137 21 67 1 -21 5 -93 8 -159 l6 -120 10 135 c9 129 10 132 16 70 4 -36 8 -108 9 -160 2 -120 18 -93 20 35 2 114 18 161 20 60 1 -38 5 -99 9 -135 l7 -65 7 85 c4 47 8 101 10 120 1 19 6 -5 10 -55 12 -136 23 -146 32 -30 9 107 10 107 20 2 4 -37 10 -65 14 -62 5 2 12 42 17 87 4 46 9 70 11 53 10 -96 15 -118 24 -104 5 8 9 42 9 77 0 34 4 62 10 62 6 0 10 -19 10 -42 0 -57 15 -80 24 -38 3 18 6 49 7 69 0 29 2 32 9 16 5 -11 9 -34 9 -52 2 -60 19 -43 27 24 l8 68 11 -58 c12 -68 25 -65 25 4 0 26 5 51 10 54 6 4 10 -6 10 -22 0 -15 3 -39 7 -52 6 -23 7 -23 14 -5 4 10 8 34 8 52 1 40 21 33 21 -7 0 -48 15 -45 26 6 l12 48 7 -42 c9 -54 25 -56 25 -4 0 55 16 60 25 8 l8 -42 11 43 c12 47 26 47 26 0 0 -15 5 -28 10 -28 6 0 10 12 10 28 0 15 5 34 10 42 7 11 11 4 16 -28 8 -49 24 -47 24 4 0 45 14 43 26 -3 l10 -38 8 38 c10 44 26 49 26 7 0 -16 5 -30 10 -30 6 0 10 14 10 30 0 40 17 38 28 -2 l8 -33 7 33 c7 35 27 44 27 13 0 -31 18 -34 22 -4 4 37 21 35 29 -3 l6 -29 8 33 c8 35 25 44 25 13 0 -11 5 -23 10 -26 6 -4 10 5 10 19 0 35 27 34 33 -1 l4 -28 2 28 c1 33 26 36 36 5 l8 -23 4 23 c2 12 9 22 14 22 5 0 14 -10 19 -22 l9 -23 0 23 c1 26 27 30 34 5 4 -17 5 -17 6 0 1 18 31 25 31 7 0 -5 5 -10 10 -10 6 0 10 7 10 15 0 20 17 19 29 -2 10 -17 10 -17 11 0 0 9 4 17 10 17 5 0 14 -8 19 -17 10 -17 10 -17 11 0 0 9 6 17 14 17 8 0 17 -8 19 -17 4 -17 5 -17 6 0 1 18 31 24 31 6 0 -8 5 -7 16 2 13 10 17 10 25 -2 8 -12 10 -12 18 0 8 12 12 12 25 2 11 -9 16 -10 16 -2 0 7 15 10 40 8 22 -2 41 1 43 7 3 7 9 7 19 -2 13 -10 17 -10 20 0 4 10 8 10 21 -1 13 -10 17 -10 17 -1 0 7 7 10 15 6 8 -3 15 -1 15 4 0 6 30 11 68 11 66 1 66 2 22 10 -61 11 -216 21 -320 21 -51 1 -88 5 -92 12 -6 8 -8 7 -8 -1 0 -20 -28 -15 -33 5 -4 16 -5 16 -6 0 0 -10 -8 -18 -16 -18 -8 0 -15 8 -15 18 -1 15 -2 15 -16 -3 -15 -19 -15 -19 -26 -1 -8 15 -12 16 -19 5 -7 -11 -11 -10 -23 6 -14 18 -15 18 -16 3 0 -10 -6 -18 -14 -18 -8 0 -17 8 -19 18 -4 16 -5 16 -6 0 -1 -22 -31 -24 -31 -3 0 8 -4 15 -10 15 -5 0 -10 -7 -10 -15 0 -23 -20 -18 -29 7 l-8 22 -5 -22 c-8 -28 -28 -29 -28 -2 0 11 -4 20 -10 20 -5 0 -10 -9 -10 -20 0 -11 -4 -20 -10 -20 -5 0 -10 9 -10 19 0 11 -4 23 -10 26 -5 3 -10 -3 -10 -14 0 -12 -7 -21 -15 -21 -8 0 -15 9 -15 20 0 11 -4 20 -10 20 -5 0 -10 -9 -10 -21 0 -28 -23 -19 -30 12 l-6 24 -7 -28 c-9 -33 -27 -27 -27 9 0 13 -4 24 -10 24 -5 0 -10 -11 -10 -25 0 -36 -18 -31 -28 8 l-9 32 -7 -32 c-9 -41 -26 -43 -26 -4 0 17 -4 33 -10 36 -6 4 -10 -6 -10 -24 0 -16 -4 -32 -9 -35 -11 -7 -21 17 -21 50 0 14 -4 22 -10 19 -5 -3 -10 -16 -10 -29 0 -41 -15 -38 -26 6 l-11 43 -8 -37 c-10 -49 -25 -49 -25 0 0 56 -13 61 -26 10 l-11 -43 -8 48 c-8 53 -25 73 -26 30 0 -15 -4 -37 -8 -48 -6 -15 -10 -5 -15 38 -9 66 -26 67 -26 1 0 -24 -4 -44 -10 -44 -5 0 -10 19 -11 43 0 23 -4 51 -8 61 -7 18 -8 18 -14 -5 -4 -13 -7 -37 -7 -54 0 -23 -3 -27 -10 -15 -5 8 -10 36 -10 62 0 63 -17 70 -25 11 -10 -80 -11 -80 -19 -8 -10 98 -18 109 -28 40 -10 -74 -16 -90 -17 -45 -3 125 -31 187 -31 69 0 -38 -4 -58 -10 -54 -5 3 -10 35 -10 70 0 98 -13 113 -26 30 l-11 -70 -8 83 c-8 86 -25 112 -26 40 0 -24 -4 -52 -9 -63 -7 -17 -9 -15 -9 11 -1 17 -4 53 -8 80 -5 36 -8 43 -14 29 -4 -11 -8 -38 -8 -60 -1 -30 -4 -36 -11 -25 -5 8 -10 29 -10 47 0 39 -9 65 -21 57 -5 -3 -9 -20 -9 -37 0 -24 -3 -28 -10 -17 -5 8 -10 25 -10 38 0 12 -4 22 -10 22 -5 0 -10 -9 -10 -19 0 -30 -17 -34 -24 -6 -8 30 -26 24 -26 -8 -1 -20 -2 -21 -14 -4 -17 22 -22 22 -29 -3 -3 -13 -10 -18 -21 -14 -10 4 -18 0 -22 -10 -3 -9 -11 -16 -18 -16 -16 -1 -55 -67 -139 -240 -87 -179 -120 -220 -178 -220 -42 0 -68 19 -92 67 -14 27 -53 176 -77 297 -25 122 -69 184 -148 206 -42 11 -47 11 -83 0z"></path> <path d="M1330 2626 c0 -33 34 -157 67 -246 49 -132 100 -229 182 -351 283 -419 728 -691 1223 -749 147 -17 402 -8 533 20 643 136 1146 601 1320 1221 14 50 23 99 20 107 -9 23 -14 11 -40 -89 -136 -533 -589 -1002 -1130 -1170 -432 -133 -875 -94 -1275 112 -435 225 -753 624 -865 1087 -9 39 -21 72 -26 72 -5 0 -9 -6 -9 -14z"></path> <path d="M1280 2159 c7 -11 9 -27 6 -35 -8 -21 -34 -17 -46 7 -7 11 -14 18 -17 16 -2 -3 0 -14 6 -25 7 -13 7 -22 -1 -30 -18 -18 -26 -15 -42 16 -8 15 -15 22 -16 15 0 -19 22 -63 33 -63 15 0 107 52 107 61 0 16 -23 59 -32 59 -5 0 -4 -9 2 -21z"></path> <path d="M4685 2120 c-2 -4 18 -19 46 -34 40 -22 49 -32 44 -47 -11 -33 10 -21 28 16 21 44 22 66 2 39 -14 -19 -15 -19 -65 7 -27 15 -52 24 -55 19z"></path> <path d="M1371 1936 c-8 -9 -10 -28 -5 -50 5 -31 4 -36 -13 -36 -11 0 -24 10 -30 22 -5 12 -12 17 -16 12 -9 -16 21 -54 42 -54 29 0 41 23 34 63 -5 32 -3 37 14 37 12 0 25 -11 33 -27 7 -17 14 -23 17 -15 7 19 -25 62 -46 62 -10 0 -24 -6 -30 -14z"></path> <path d="M4570 1922 c0 -5 10 -16 22 -24 22 -15 22 -16 4 -42 -17 -26 -19 -27 -41 -12 -27 18 -35 20 -35 8 0 -11 88 -72 103 -72 7 1 1 10 -12 21 -23 19 -23 20 -5 42 10 12 20 23 21 25 0 2 13 -4 27 -13 44 -29 29 0 -16 32 -59 41 -68 46 -68 35z"></path> <path d="M1516 1704 c-25 -19 -46 -39 -46 -44 0 -18 14 -11 52 27 32 31 42 36 56 27 31 -20 26 -45 -14 -80 -22 -18 -36 -36 -31 -40 10 -10 87 66 87 86 0 16 -20 38 -46 53 -6 4 -32 -9 -58 -29z"></path> <path d="M4367 1682 c-15 -16 -24 -31 -21 -35 4 -4 13 2 21 13 16 23 34 25 51 8 9 -9 7 -17 -10 -35 -24 -26 -14 -31 14 -7 14 14 20 15 33 4 14 -12 13 -16 -6 -37 -13 -12 -18 -23 -12 -23 5 0 19 10 31 23 l22 23 -48 47 -48 47 -27 -28z"></path> <path d="M1726 1499 c-33 -39 -33 -62 0 -88 35 -28 40 -27 80 13 39 39 42 58 14 86 -29 29 -64 25 -94 -11z m78 5 c20 -19 20 -29 0 -59 -19 -30 -40 -38 -65 -25 -26 15 -24 46 6 75 28 29 38 31 59 9z"></path> <path d="M4013 1393 c-28 -19 -30 -47 -4 -65 10 -7 20 -22 22 -33 5 -26 40 -30 67 -8 l21 18 -32 53 c-34 56 -40 59 -74 35z m46 -22 c8 -15 6 -20 -15 -30 -20 -9 -26 -8 -30 4 -6 16 12 45 27 45 5 0 13 -8 18 -19z m31 -50 c8 -16 6 -21 -11 -26 -28 -9 -46 9 -29 30 17 20 27 19 40 -4z"></path> <path d="M1971 1319 c-18 -32 -28 -59 -22 -59 6 0 15 9 21 20 10 19 12 19 41 4 30 -15 30 -16 14 -41 -12 -18 -13 -24 -4 -21 13 4 66 84 68 101 2 16 -16 5 -29 -18 -13 -24 -17 -24 -59 3 -11 8 -10 14 3 35 10 14 13 28 9 30 -5 3 -24 -21 -42 -54z"></path> <path d="M3778 1268 c-16 -5 -28 -14 -28 -20 0 -9 6 -8 46 8 5 3 21 -18 34 -46 13 -27 27 -50 32 -50 4 0 8 2 8 5 0 10 -55 115 -60 114 -3 0 -17 -5 -32 -11z"></path> <path d="M3537 1178 c-34 -12 -43 -45 -24 -90 16 -38 40 -50 74 -37 33 12 44 40 32 82 -8 30 -36 60 -51 56 -2 0 -15 -5 -31 -11z m52 -21 c6 -8 14 -28 17 -45 5 -27 3 -33 -20 -43 -32 -15 -52 -1 -61 42 -11 48 35 81 64 46z"></path> <path d="M2446 1168 c-25 -14 -20 -53 9 -68 44 -24 28 -58 -19 -40 -16 6 -26 6 -26 0 0 -5 11 -12 25 -16 56 -14 84 27 42 60 -47 38 -28 73 25 45 16 -9 19 -8 16 2 -6 18 -51 29 -72 17z"></path> <path d="M3226 1104 c-20 -20 -20 -73 0 -102 18 -26 50 -28 83 -6 20 14 22 23 18 56 -3 21 -11 45 -17 53 -16 20 -65 19 -84 -1z m63 -3 c8 -5 15 -27 15 -53 1 -40 -1 -43 -28 -46 -34 -4 -46 10 -46 55 0 41 29 63 59 44z"></path> <path d="M2898 1056 c-12 -73 -10 -86 10 -86 13 0 23 13 32 40 15 45 22 43 40 -12 6 -21 18 -38 26 -38 11 0 14 16 14 71 0 44 -4 68 -10 64 -5 -3 -10 -27 -11 -53 l0 -47 -16 38 c-8 20 -20 37 -25 37 -5 0 -17 -19 -26 -42 l-17 -43 -5 60 -5 60 -7 -49z"></path> <path d="M2676 1004 c-9 -22 3 -32 14 -14 12 19 12 30 1 30 -5 0 -12 -7 -15 -16z"></path> </g> </svg>